<mxfile host="app.diagrams.net" agent="Mozilla/5.0 (Windows NT 10.0; Win64; x64) AppleWebKit/537.36 (KHTML, like Gecko) Chrome/128.0.0.0 Safari/537.36" version="24.7.13">
  <diagram name="PÃ¡gina-1" id="hXu8i39B8xi2bHfzjZRC">
    <mxGraphModel dx="1349" dy="1229" grid="0" gridSize="10" guides="1" tooltips="1" connect="1" arrows="1" fold="1" page="0" pageScale="1" pageWidth="827" pageHeight="1169" math="0" shadow="0">
      <root>
        <mxCell id="0" />
        <mxCell id="1" parent="0" />
        <mxCell id="sTZV90ieUZX_DQnjYFJr-1" value="" style="shape=table;startSize=0;container=1;collapsible=0;childLayout=tableLayout;" vertex="1" parent="1">
          <mxGeometry x="-27" y="65" width="172" height="230" as="geometry" />
        </mxCell>
        <mxCell id="sTZV90ieUZX_DQnjYFJr-2" value="" style="shape=tableRow;horizontal=0;startSize=0;swimlaneHead=0;swimlaneBody=0;strokeColor=inherit;top=0;left=0;bottom=0;right=0;collapsible=0;dropTarget=0;fillColor=none;points=[[0,0.5],[1,0.5]];portConstraint=eastwest;" vertex="1" parent="sTZV90ieUZX_DQnjYFJr-1">
          <mxGeometry width="172" height="28" as="geometry" />
        </mxCell>
        <mxCell id="sTZV90ieUZX_DQnjYFJr-3" value="" style="shape=partialRectangle;html=1;whiteSpace=wrap;connectable=0;strokeColor=inherit;overflow=hidden;fillColor=none;top=0;left=0;bottom=0;right=0;pointerEvents=1;" vertex="1" parent="sTZV90ieUZX_DQnjYFJr-2">
          <mxGeometry width="172" height="28" as="geometry">
            <mxRectangle width="172" height="28" as="alternateBounds" />
          </mxGeometry>
        </mxCell>
        <mxCell id="sTZV90ieUZX_DQnjYFJr-4" value="" style="shape=tableRow;horizontal=0;startSize=0;swimlaneHead=0;swimlaneBody=0;strokeColor=inherit;top=0;left=0;bottom=0;right=0;collapsible=0;dropTarget=0;fillColor=none;points=[[0,0.5],[1,0.5]];portConstraint=eastwest;" vertex="1" parent="sTZV90ieUZX_DQnjYFJr-1">
          <mxGeometry y="28" width="172" height="66" as="geometry" />
        </mxCell>
        <mxCell id="sTZV90ieUZX_DQnjYFJr-5" value="" style="shape=partialRectangle;html=1;whiteSpace=wrap;connectable=0;strokeColor=inherit;overflow=hidden;fillColor=none;top=0;left=0;bottom=0;right=0;pointerEvents=1;" vertex="1" parent="sTZV90ieUZX_DQnjYFJr-4">
          <mxGeometry width="172" height="66" as="geometry">
            <mxRectangle width="172" height="66" as="alternateBounds" />
          </mxGeometry>
        </mxCell>
        <mxCell id="sTZV90ieUZX_DQnjYFJr-6" value="" style="shape=tableRow;horizontal=0;startSize=0;swimlaneHead=0;swimlaneBody=0;strokeColor=inherit;top=0;left=0;bottom=0;right=0;collapsible=0;dropTarget=0;fillColor=none;points=[[0,0.5],[1,0.5]];portConstraint=eastwest;" vertex="1" parent="sTZV90ieUZX_DQnjYFJr-1">
          <mxGeometry y="94" width="172" height="70" as="geometry" />
        </mxCell>
        <mxCell id="sTZV90ieUZX_DQnjYFJr-7" value="" style="shape=partialRectangle;html=1;whiteSpace=wrap;connectable=0;strokeColor=inherit;overflow=hidden;fillColor=none;top=0;left=0;bottom=0;right=0;pointerEvents=1;" vertex="1" parent="sTZV90ieUZX_DQnjYFJr-6">
          <mxGeometry width="172" height="70" as="geometry">
            <mxRectangle width="172" height="70" as="alternateBounds" />
          </mxGeometry>
        </mxCell>
        <mxCell id="sTZV90ieUZX_DQnjYFJr-8" value="" style="shape=tableRow;horizontal=0;startSize=0;swimlaneHead=0;swimlaneBody=0;strokeColor=inherit;top=0;left=0;bottom=0;right=0;collapsible=0;dropTarget=0;fillColor=none;points=[[0,0.5],[1,0.5]];portConstraint=eastwest;" vertex="1" parent="sTZV90ieUZX_DQnjYFJr-1">
          <mxGeometry y="164" width="172" height="66" as="geometry" />
        </mxCell>
        <mxCell id="sTZV90ieUZX_DQnjYFJr-9" value="" style="shape=partialRectangle;html=1;whiteSpace=wrap;connectable=0;strokeColor=inherit;overflow=hidden;fillColor=none;top=0;left=0;bottom=0;right=0;pointerEvents=1;" vertex="1" parent="sTZV90ieUZX_DQnjYFJr-8">
          <mxGeometry width="172" height="66" as="geometry">
            <mxRectangle width="172" height="66" as="alternateBounds" />
          </mxGeometry>
        </mxCell>
        <mxCell id="sTZV90ieUZX_DQnjYFJr-11" style="edgeStyle=none;curved=1;rounded=0;orthogonalLoop=1;jettySize=auto;html=1;fontSize=12;startSize=8;endSize=8;" edge="1" parent="1">
          <mxGeometry relative="1" as="geometry">
            <mxPoint x="359" y="249" as="targetPoint" />
            <mxPoint x="370" y="242" as="sourcePoint" />
          </mxGeometry>
        </mxCell>
        <mxCell id="sTZV90ieUZX_DQnjYFJr-10" value="Actor" style="shape=umlActor;verticalLabelPosition=bottom;verticalAlign=top;html=1;outlineConnect=0;" vertex="1" parent="1">
          <mxGeometry x="256" y="-167" as="geometry" />
        </mxCell>
      </root>
    </mxGraphModel>
  </diagram>
</mxfile>
